<svg width="12" height="12" viewBox="0 0 12 12" fill="none" xmlns="http://www.w3.org/2000/svg">
<path id="Union" fill-rule="evenodd" clip-rule="evenodd" d="M0.853553 0.146447C0.658291 -0.0488155 0.341709 -0.0488155 0.146447 0.146447C-0.0488155 0.341709 -0.0488155 0.658291 0.146447 0.853553L5.08009 5.78719L0.146473 10.7208C-0.048789 10.9161 -0.048789 11.2326 0.146473 11.4279C0.341735 11.6232 0.658318 11.6232 0.853579 11.4279L5.78719 6.4943L10.7208 11.4279C10.9161 11.6232 11.2326 11.6232 11.4279 11.4279C11.6232 11.2326 11.6232 10.9161 11.4279 10.7208L6.49427 5.78717L11.4279 0.853553C11.6231 0.658291 11.6231 0.341709 11.4279 0.146447C11.2326 -0.0488155 10.916 -0.0488155 10.7208 0.146447L5.78717 5.08006L0.853553 0.146447Z" fill="#5A5A89"/>
</svg>
